<mxfile host="app.diagrams.net" modified="2024-01-14T14:33:00.481Z" agent="Mozilla/5.0 (Windows NT 10.0; Win64; x64) AppleWebKit/537.36 (KHTML, like Gecko) Chrome/120.0.0.0 Safari/537.36" etag="lTYTHlJ_YiLev9m-jpUS" version="22.1.18" type="github">
  <diagram name="第 1 页" id="TYBMhdNcTjmp5_OupLH6">
    <mxGraphModel dx="977" dy="573" grid="0" gridSize="10" guides="1" tooltips="1" connect="1" arrows="1" fold="1" page="0" pageScale="1" pageWidth="827" pageHeight="1169" math="0" shadow="0">
      <root>
        <mxCell id="0" />
        <mxCell id="1" parent="0" />
        <mxCell id="thSDkyvH8xNX-SJ7blW_-1" value="&lt;font face=&quot;Courier New&quot;&gt;&lt;span style=&quot;font-size: 16px;&quot;&gt;&lt;b&gt;c&lt;/b&gt;&lt;/span&gt;&lt;/font&gt;" style="rounded=0;whiteSpace=wrap;html=1;strokeWidth=2;fillColor=#dae8fc;strokeColor=default;" vertex="1" parent="1">
          <mxGeometry x="70" y="190" width="50" height="130" as="geometry" />
        </mxCell>
        <mxCell id="thSDkyvH8xNX-SJ7blW_-13" value="&lt;b&gt;&lt;font style=&quot;font-size: 16px;&quot; face=&quot;Courier New&quot;&gt;d&lt;/font&gt;&lt;/b&gt;" style="rounded=0;whiteSpace=wrap;html=1;strokeWidth=2;fillColor=#dae8fc;strokeColor=default;" vertex="1" parent="1">
          <mxGeometry x="120" y="190" width="50" height="130" as="geometry" />
        </mxCell>
        <mxCell id="thSDkyvH8xNX-SJ7blW_-14" value="" style="rounded=0;whiteSpace=wrap;html=1;strokeWidth=2;" vertex="1" parent="1">
          <mxGeometry x="170" y="190" width="50" height="130" as="geometry" />
        </mxCell>
        <mxCell id="thSDkyvH8xNX-SJ7blW_-15" value="" style="rounded=0;whiteSpace=wrap;html=1;strokeWidth=2;" vertex="1" parent="1">
          <mxGeometry x="220" y="190" width="50" height="130" as="geometry" />
        </mxCell>
        <mxCell id="thSDkyvH8xNX-SJ7blW_-20" value="" style="rounded=0;whiteSpace=wrap;html=1;strokeWidth=2;" vertex="1" parent="1">
          <mxGeometry x="270" y="190" width="50" height="130" as="geometry" />
        </mxCell>
        <mxCell id="thSDkyvH8xNX-SJ7blW_-21" value="" style="rounded=0;whiteSpace=wrap;html=1;strokeWidth=2;" vertex="1" parent="1">
          <mxGeometry x="320" y="190" width="50" height="130" as="geometry" />
        </mxCell>
        <mxCell id="thSDkyvH8xNX-SJ7blW_-22" value="" style="rounded=0;whiteSpace=wrap;html=1;strokeWidth=2;" vertex="1" parent="1">
          <mxGeometry x="370" y="190" width="50" height="130" as="geometry" />
        </mxCell>
        <mxCell id="thSDkyvH8xNX-SJ7blW_-23" value="" style="rounded=0;whiteSpace=wrap;html=1;strokeWidth=2;" vertex="1" parent="1">
          <mxGeometry x="420" y="190" width="50" height="130" as="geometry" />
        </mxCell>
        <mxCell id="thSDkyvH8xNX-SJ7blW_-24" value="" style="rounded=0;whiteSpace=wrap;html=1;strokeWidth=2;" vertex="1" parent="1">
          <mxGeometry x="470" y="190" width="50" height="130" as="geometry" />
        </mxCell>
        <mxCell id="thSDkyvH8xNX-SJ7blW_-25" value="" style="rounded=0;whiteSpace=wrap;html=1;strokeWidth=2;" vertex="1" parent="1">
          <mxGeometry x="520" y="190" width="50" height="130" as="geometry" />
        </mxCell>
        <mxCell id="thSDkyvH8xNX-SJ7blW_-26" value="" style="endArrow=classic;html=1;rounded=0;strokeWidth=2;" edge="1" parent="1">
          <mxGeometry width="50" height="50" relative="1" as="geometry">
            <mxPoint x="170" y="70" as="sourcePoint" />
            <mxPoint x="170" y="160" as="targetPoint" />
          </mxGeometry>
        </mxCell>
        <mxCell id="thSDkyvH8xNX-SJ7blW_-27" value="&lt;b&gt;&lt;font style=&quot;font-size: 16px;&quot; face=&quot;Courier New&quot;&gt;Position&lt;/font&gt;&lt;/b&gt;" style="text;html=1;align=center;verticalAlign=middle;resizable=0;points=[];autosize=1;strokeColor=none;fillColor=none;" vertex="1" parent="1">
          <mxGeometry x="120" y="30" width="100" height="30" as="geometry" />
        </mxCell>
        <mxCell id="thSDkyvH8xNX-SJ7blW_-28" value="" style="endArrow=classic;html=1;rounded=0;strokeWidth=2;" edge="1" parent="1">
          <mxGeometry width="50" height="50" relative="1" as="geometry">
            <mxPoint x="570" y="70" as="sourcePoint" />
            <mxPoint x="570" y="160" as="targetPoint" />
          </mxGeometry>
        </mxCell>
        <mxCell id="thSDkyvH8xNX-SJ7blW_-29" value="&lt;b&gt;&lt;font style=&quot;font-size: 16px;&quot; face=&quot;Courier New&quot;&gt;Limit&lt;/font&gt;&lt;/b&gt;" style="text;html=1;align=center;verticalAlign=middle;resizable=0;points=[];autosize=1;strokeColor=none;fillColor=none;" vertex="1" parent="1">
          <mxGeometry x="535" y="30" width="70" height="30" as="geometry" />
        </mxCell>
        <mxCell id="thSDkyvH8xNX-SJ7blW_-32" value="" style="endArrow=classic;html=1;rounded=0;strokeWidth=2;" edge="1" parent="1">
          <mxGeometry width="50" height="50" relative="1" as="geometry">
            <mxPoint x="650" y="80" as="sourcePoint" />
            <mxPoint x="580" y="160" as="targetPoint" />
          </mxGeometry>
        </mxCell>
        <mxCell id="thSDkyvH8xNX-SJ7blW_-33" value="&lt;b&gt;&lt;font style=&quot;font-size: 16px;&quot; face=&quot;Courier New&quot;&gt;Capacity&lt;/font&gt;&lt;/b&gt;" style="text;html=1;align=center;verticalAlign=middle;resizable=0;points=[];autosize=1;strokeColor=none;fillColor=none;" vertex="1" parent="1">
          <mxGeometry x="605" y="50" width="100" height="30" as="geometry" />
        </mxCell>
      </root>
    </mxGraphModel>
  </diagram>
</mxfile>
